<?xml version="1.0" standalone="no"?>
<!DOCTYPE svg PUBLIC "-//W3C//DTD SVG 20010904//EN"
 "http://www.w3.org/TR/2001/REC-SVG-20010904/DTD/svg10.dtd">
<svg version="1.0" xmlns="http://www.w3.org/2000/svg"
 width="1200.000000pt" height="1554.000000pt" viewBox="0 0 1200.000000 1554.000000"
 preserveAspectRatio="xMidYMid meet">

<g transform="translate(0.000000,1554.000000) scale(0.100000,-0.100000)"
fill="#000000" stroke="none">
<path d="M5856 15389 c-159 -172 -261 -266 -496 -454 -713 -570 -1955 -1336
-2750 -1694 -687 -310 -1579 -604 -2257 -743 l-113 -23 -10 -50 c-27 -133 -84
-471 -110 -655 -164 -1145 -157 -2271 21 -3410 38 -246 146 -779 205 -1014
270 -1078 712 -2141 1292 -3106 820 -1365 1963 -2603 3263 -3535 304 -218 829
-559 1056 -685 l41 -23 204 123 c573 346 1075 703 1570 1116 536 446 1106
1016 1543 1544 1093 1316 1876 2832 2299 4450 61 236 198 889 235 1130 199
1276 185 2519 -45 3820 -19 107 -39 218 -44 246 l-11 50 -112 23 c-661 134
-1560 429 -2232 731 -778 350 -1993 1092 -2729 1666 -257 201 -418 352 -647
607 l-34 38 -139 -152z m446 -625 c728 -608 2142 -1482 3023 -1869 588 -259
1288 -497 1924 -655 113 -27 206 -52 208 -53 1 -2 16 -82 33 -178 173 -1016
204 -2079 89 -3109 -35 -317 -101 -737 -156 -992 l-16 -78 -504 0 c-277 0
-503 4 -503 8 0 4 34 108 75 231 99 295 108 379 56 494 -10 23 -94 137 -187
252 -93 116 -242 307 -331 426 l-163 215 0 139 c0 183 -16 493 -35 677 -42
407 -124 708 -247 908 -61 100 -200 247 -313 333 -187 141 -479 248 -875 321
-277 51 -473 55 -1095 26 -421 -19 -1224 -33 -1620 -27 -455 7 -657 18 -879
47 -250 33 -446 27 -911 -30 -453 -56 -625 -60 -711 -18 l-29 13 0 171 0 170
-40 58 c-53 77 -143 184 -177 209 -17 13 -35 18 -50 14 -35 -9 -190 -147 -215
-192 -24 -44 -43 -136 -43 -214 0 -32 -5 -53 -12 -56 -7 -2 -111 -6 -230 -10
l-216 -6 -12 58 c-7 32 -30 92 -51 134 -21 41 -47 113 -58 158 -11 46 -22 85
-24 88 -3 2 -26 -33 -52 -79 -26 -46 -83 -135 -126 -200 -110 -164 -128 -204
-140 -306 -10 -81 -13 -90 -49 -127 -74 -78 -90 -144 -70 -276 13 -83 13 -83
-11 -98 -59 -39 -119 -105 -130 -143 -20 -77 8 -194 82 -333 76 -144 90 -214
65 -320 -19 -80 -15 -101 26 -127 52 -33 98 -41 283 -48 105 -4 235 -15 290
-23 55 -9 204 -25 330 -36 127 -11 269 -27 316 -35 167 -30 440 -118 701 -228
151 -63 605 -292 634 -319 32 -30 74 -131 86 -207 31 -195 -51 -1533 -102
-1667 l-10 -25 -1774 0 -1774 0 -11 49 c-47 221 -119 659 -150 921 -58 484
-75 784 -76 1325 0 563 18 858 81 1380 25 204 99 673 108 682 2 2 57 17 122
32 693 164 1450 423 2114 723 658 296 1776 965 2493 1492 282 207 596 464 701
575 l29 30 81 -76 c45 -42 147 -132 228 -199z m-3342 -2480 c42 -45 60 -80 60
-115 0 -16 -6 -13 -32 17 -35 40 -95 71 -110 56 -5 -5 -2 -26 7 -51 29 -84 10
-235 -35 -276 -11 -10 -37 -21 -58 -24 -46 -8 -49 -32 -5 -45 40 -11 105 11
166 58 l42 32 0 -62 c0 -73 21 -103 95 -137 40 -19 68 -22 270 -25 245 -4 466
12 670 48 208 37 279 43 450 36 91 -3 183 -10 205 -14 l40 -8 -63 -8 c-34 -5
-108 -19 -163 -31 -56 -13 -108 -21 -118 -18 -9 2 5 -15 31 -40 l47 -44 -65
-7 c-35 -4 -88 -4 -116 0 l-51 7 5 -50 c3 -28 14 -69 26 -92 l22 -41 -49 0
c-27 0 -79 9 -116 21 -67 20 -67 21 -61 52 l6 31 -30 -29 c-34 -33 -46 -28
-67 28 l-11 32 -1 -32 c-1 -40 27 -113 43 -113 7 0 17 5 23 11 7 7 15 -5 27
-43 10 -29 28 -72 42 -94 l24 -42 -41 9 c-54 12 -103 33 -140 60 -28 19 -30
25 -24 58 l6 36 -26 -27 c-14 -16 -30 -28 -35 -28 -11 0 -29 32 -41 69 -6 20
-7 14 -8 -27 -1 -64 23 -115 51 -106 14 4 18 0 18 -19 0 -36 30 -129 52 -159
11 -16 15 -28 9 -28 -30 0 -106 48 -138 86 -32 39 -35 49 -29 84 l6 39 -24
-24 c-32 -32 -40 -31 -66 2 -21 28 -22 34 -4 109 l6 29 -18 -25 c-37 -52 -50
-52 -74 3 -11 23 -20 38 -21 32 -3 -23 3 -80 11 -100 6 -16 1 -33 -20 -67 -45
-72 -63 -69 -109 17 -22 42 -22 42 -1 -63 11 -60 35 -112 51 -112 6 0 19 10
28 21 17 21 17 21 30 -35 12 -53 51 -116 73 -116 5 0 18 10 28 22 l17 22 13
-40 c17 -55 62 -131 120 -206 27 -34 45 -64 40 -66 -16 -6 -74 30 -127 81 -57
54 -62 50 -37 -34 22 -72 67 -162 115 -226 22 -29 35 -53 29 -53 -20 0 -101
83 -135 140 -29 48 -35 68 -36 116 l0 59 -13 -48 c-7 -27 -21 -56 -30 -65 -15
-15 -19 -13 -52 18 -48 47 -54 61 -47 104 l6 36 35 -41 36 -42 19 24 c18 23
77 132 77 144 0 3 -17 -12 -38 -35 -22 -22 -43 -40 -49 -40 -14 0 -43 34 -68
78 l-21 37 24 54 23 55 -49 -53 c-28 -29 -56 -51 -64 -49 -7 2 -26 28 -41 58
l-29 55 5 -53 c4 -46 1 -58 -24 -92 -16 -22 -33 -40 -38 -40 -9 0 -44 39 -68
76 -11 17 -12 15 -6 -11 8 -42 37 -96 61 -119 21 -18 21 -18 42 15 11 19 23
45 27 59 10 42 15 43 31 10 21 -44 41 -49 68 -17 13 15 25 27 27 27 3 0 7 -17
10 -37 3 -27 -3 -53 -20 -89 -42 -91 -60 -93 -99 -10 l-24 51 0 -50 c0 -98
-31 -156 -71 -134 -9 4 -31 31 -49 59 -18 27 -34 50 -37 50 -7 0 7 -59 29
-118 13 -34 31 -61 55 -79 l35 -27 19 25 19 24 0 -50 c0 -27 9 -74 19 -102 10
-29 15 -53 11 -53 -3 0 -25 14 -48 31 -44 33 -97 99 -131 166 l-21 42 -57 -60
c-66 -70 -153 -116 -233 -126 l-55 -6 43 48 c52 59 69 113 77 242 l6 98 -31
-73 c-69 -167 -160 -263 -280 -297 -22 -6 -22 -5 5 13 38 24 80 73 106 123 27
54 58 192 61 271 3 56 0 71 -20 95 -28 35 -61 102 -62 126 0 10 8 17 19 17 11
0 23 5 26 11 12 19 5 293 -10 362 -38 182 -172 311 -375 361 -209 50 -345 36
-528 -55 l-76 -38 36 37 c46 48 58 73 111 230 l44 131 26 -94 c15 -52 27 -116
27 -141 0 -43 1 -46 23 -39 12 3 92 9 178 12 143 5 164 4 230 -17 124 -37 205
-85 295 -175 94 -94 150 -193 188 -332 23 -84 25 -86 25 -42 1 68 -33 189 -82
293 -50 104 -92 160 -157 209 l-46 35 3 162 c2 159 2 164 30 209 16 25 47 60
71 78 37 28 46 31 72 22 16 -6 47 -31 70 -55z m-509 -504 c94 -37 149 -85 191
-170 22 -42 33 -77 28 -78 -23 -8 -60 10 -106 52 -106 95 -212 148 -263 131
-27 -8 -75 -49 -101 -85 l-20 -28 52 29 c29 16 63 29 76 29 30 0 80 -23 116
-54 l30 -25 -42 6 c-51 7 -68 -5 -84 -58 -6 -22 -17 -44 -25 -50 -28 -24 -9
-29 110 -28 149 0 209 9 247 37 l28 21 11 -63 c14 -77 14 -183 1 -191 -5 -3
-28 4 -50 15 -24 12 -55 20 -73 18 -29 -3 -32 -6 -35 -41 -4 -52 40 -145 106
-222 85 -99 88 -109 70 -204 -9 -45 -28 -102 -43 -126 -39 -68 -68 -78 -215
-81 -119 -1 -136 -4 -350 -63 -124 -33 -246 -64 -271 -67 -48 -6 -152 17 -164
37 -4 5 10 26 31 46 35 33 39 34 51 17 12 -17 14 -17 33 1 19 17 21 17 40 0
20 -18 21 -18 44 4 l24 22 16 -22 c21 -31 30 -18 36 54 l5 62 28 -52 c18 -34
34 -53 45 -53 36 0 128 32 190 66 57 31 71 34 135 33 62 -2 73 1 89 21 21 26
23 49 5 75 -16 21 -121 33 -303 34 -125 1 -128 0 -139 -66 -4 -24 -10 -43 -15
-43 -4 0 -16 23 -26 50 -17 48 -19 50 -57 50 -51 0 -94 27 -157 98 -58 65 -62
92 -14 104 43 11 57 31 52 73 -2 19 -2 35 2 35 9 0 73 -41 114 -73 l38 -30 67
21 68 22 163 -55 c90 -31 195 -73 234 -93 63 -33 71 -41 74 -69 2 -18 -1 -49
-7 -69 -6 -21 -8 -40 -5 -43 10 -11 44 44 60 97 20 66 19 67 -115 154 -138 90
-304 171 -439 213 -64 21 -125 40 -135 44 -17 6 -14 12 20 56 92 117 168 270
159 320 -11 56 60 144 139 173 44 17 161 8 226 -18z m5809 -31 c308 -35 749
-186 917 -313 239 -181 403 -531 473 -1008 28 -186 44 -511 34 -655 -5 -65
-10 -102 -12 -83 -9 97 -66 472 -93 609 -79 407 -166 666 -276 819 -93 130
-312 330 -421 383 -54 27 -67 16 -22 -18 79 -59 249 -242 309 -333 198 -298
289 -596 431 -1408 37 -213 52 -278 67 -295 11 -12 121 -141 243 -287 123
-146 257 -303 300 -350 111 -124 182 -210 209 -253 32 -53 27 -93 -52 -357
-36 -118 -95 -318 -132 -445 -129 -443 -142 -477 -212 -522 -37 -25 -175 -26
-199 -1 -22 21 -20 88 3 136 17 35 21 37 76 42 72 7 82 18 91 103 14 138 25
630 17 772 -5 83 -7 151 -6 153 1 1 35 -16 76 -38 120 -65 138 -74 145 -67 12
12 -29 90 -70 135 -54 59 -191 177 -451 387 -387 314 -623 524 -812 726 -170
182 -213 240 -392 529 -43 69 -176 278 -296 465 -331 517 -352 558 -362 715
-6 97 12 186 52 259 14 24 23 46 21 49 -12 11 -163 -157 -188 -209 -70 -145
-64 -204 42 -417 103 -208 245 -463 329 -589 38 -56 65 -101 62 -99 -3 3 -36
24 -73 49 -129 87 -240 113 -447 104 -194 -8 -312 -38 -499 -126 -179 -84
-235 -100 -374 -108 l-107 -6 -48 50 c-64 66 -133 186 -211 363 -34 80 -67
154 -72 165 -7 17 -9 15 -9 -13 -2 -89 74 -339 155 -511 24 -51 44 -95 44 -97
0 -9 -44 -3 -68 10 -30 16 -108 95 -140 143 -102 148 -212 412 -283 678 l-29
110 5 -105 c11 -238 131 -653 231 -801 l33 -49 -27 6 c-60 15 -120 51 -172
104 -119 122 -183 274 -264 625 -31 135 -76 169 -315 245 -89 28 -165 50 -167
47 -2 -2 3 -35 11 -73 41 -193 -1 -486 -119 -829 -85 -250 -149 -400 -323
-758 -69 -142 -123 -260 -121 -262 3 -3 53 54 113 126 122 149 132 151 122 25
-7 -91 -46 -240 -142 -541 -125 -395 -141 -480 -150 -770 -4 -99 -8 -195 -11
-214 -5 -33 -6 -33 -48 -28 -27 4 -49 2 -60 -6 -11 -8 -40 -103 -87 -292 -39
-154 -78 -288 -86 -297 -20 -22 -37 -23 -54 -2 -13 16 -55 15 -124 -2 l-24 -6
29 88 c17 48 28 89 26 91 -11 11 -38 -17 -82 -85 -69 -107 -100 -141 -137
-146 -88 -13 -137 -16 -137 -7 0 16 141 274 164 300 12 13 39 31 62 41 48 21
72 65 98 177 50 223 111 1000 123 1575 l6 308 59 -143 c33 -78 64 -146 70
-152 7 -7 9 15 5 70 -6 105 -53 244 -150 451 -94 201 -113 254 -132 361 -27
156 -11 464 36 696 69 340 279 619 584 774 193 98 353 -4 420 -269 l23 -93 7
49 c10 63 0 187 -20 253 -8 28 -31 75 -50 103 l-35 51 173 -6 c319 -12 1401
-22 1587 -14 102 4 271 15 375 24 105 10 237 21 295 25 126 10 521 3 640 -11z
m-5839 -199 c10 -6 19 -19 19 -30 0 -16 -26 -40 -44 -40 -15 0 -26 41 -16 60
12 23 15 24 41 10z m1212 -251 c11 9 16 2 26 -32 7 -23 20 -50 29 -60 14 -16
17 -16 32 -2 17 15 19 11 40 -57 23 -75 58 -153 92 -200 45 -64 -63 -5 -126
69 -33 37 -35 44 -25 70 6 15 15 42 19 58 7 25 7 27 -3 11 -46 -73 -54 -81
-76 -81 -17 0 -31 14 -57 55 l-34 56 21 62 c17 51 24 61 35 51 10 -8 18 -9 27
0z m-1952 -120 c24 -12 42 -55 34 -80 -15 -46 -124 -1 -125 52 0 35 49 51 91
28z m4004 -469 c26 -90 62 -179 129 -315 52 -104 92 -192 90 -194 -9 -10 -103
99 -148 172 -76 123 -127 297 -125 434 0 81 4 75 54 -97z m-3937 69 c32 -12
37 -35 19 -75 -28 -57 -74 -38 -92 38 -14 57 -1 64 73 37z m1841 -165 c33 -22
37 -23 49 -7 6 9 12 26 13 37 0 12 11 -19 24 -69 12 -49 30 -108 39 -129 9
-22 15 -41 12 -43 -2 -2 -37 33 -79 77 -75 80 -147 199 -147 243 0 13 10 1 26
-31 16 -32 41 -63 63 -78z m-135 26 c3 0 12 12 20 28 15 27 15 27 16 -24 0
-92 43 -197 108 -266 32 -34 23 -35 -27 -4 -75 48 -129 135 -162 264 -25 100
-24 104 11 49 16 -26 32 -47 34 -47z m4320 -620 c34 -13 66 -66 66 -112 0 -20
-18 -80 -40 -133 -42 -105 -65 -145 -80 -145 -24 0 -164 254 -176 317 -8 43 9
63 63 73 57 11 138 11 167 0z m-664 -110 c43 -43 39 -115 -14 -241 -47 -110
-97 -194 -116 -194 -31 0 -135 379 -114 413 16 26 71 41 152 41 59 1 76 -3 92
-19z m-733 -25 c12 -8 29 -35 38 -59 14 -36 15 -48 4 -67 -29 -57 -192 -279
-204 -279 -22 0 -99 300 -93 362 2 28 9 35 38 45 52 18 191 16 217 -2z m930
-182 c22 -32 57 -87 78 -123 48 -82 83 -120 110 -120 27 0 66 43 90 98 16 37
20 41 28 25 5 -10 21 -30 35 -45 14 -16 21 -28 14 -28 -20 0 -83 -62 -104
-103 -28 -55 -21 -131 16 -187 26 -39 26 -43 11 -60 -9 -10 -28 -20 -43 -23
-54 -11 -103 -55 -153 -137 -7 -12 -17 -6 -51 32 -24 26 -55 62 -70 81 -35 43
-188 103 -237 92 -32 -7 -81 -50 -81 -71 0 -10 -7 -11 -30 -2 -40 14 -67 6
-122 -37 -80 -61 -72 -126 25 -201 73 -57 82 -61 175 -69 l82 -7 62 -112 c99
-177 198 -258 290 -236 24 5 46 10 51 10 9 0 9 -42 -1 -55 -4 -5 -59 -27 -122
-48 -208 -69 -250 -106 -250 -220 0 -65 32 -172 80 -267 l30 -60 -176 0 -176
0 -49 39 c-40 32 -130 72 -216 97 -7 1 -15 20 -18 41 -3 21 -10 63 -16 93 -6
30 -11 60 -12 65 -1 6 2 58 7 116 l8 106 42 -8 c114 -22 240 6 302 68 32 31
34 38 34 97 0 108 -27 157 -173 312 -76 81 -77 82 -77 136 0 62 -9 79 -89 161
-104 107 -194 100 -225 -18 l-11 -46 -25 19 c-33 26 -150 72 -182 72 -64 0
-196 -95 -258 -185 -33 -48 -70 -153 -70 -198 0 -28 -6 -35 -49 -59 -42 -23
-54 -37 -83 -97 -25 -53 -39 -72 -58 -77 -92 -22 -132 -37 -159 -60 -40 -33
-45 -55 -25 -101 10 -21 18 -59 19 -85 0 -40 6 -53 36 -85 19 -21 44 -51 54
-68 9 -16 29 -42 43 -57 14 -15 24 -29 21 -31 -2 -1 -25 -12 -50 -24 -95 -44
-150 -111 -151 -184 l0 -39 -331 0 -330 0 6 168 c9 271 70 570 177 873 107
300 122 346 141 429 10 47 19 107 19 134 l0 49 32 -7 c42 -8 52 -18 118 -116
67 -100 120 -150 157 -150 39 0 106 43 135 87 14 21 44 72 66 113 73 134 118
180 177 180 50 0 132 -46 183 -101 146 -159 145 -159 195 -159 65 0 95 29 199
197 48 76 96 147 107 157 29 26 42 18 203 -127 149 -134 238 -197 279 -197 41
0 93 66 173 221 64 124 99 179 116 179 4 0 25 -26 47 -57z m-1727 -43 c36 -50
36 -87 0 -155 -57 -106 -103 -176 -114 -172 -6 2 -16 20 -23 39 -16 49 -51
285 -44 296 9 14 38 20 103 21 52 1 58 -1 78 -29z m2470 -46 c23 -5 35 -15 42
-36 6 -17 20 -31 34 -34 15 -4 26 -16 30 -33 4 -14 17 -41 31 -58 59 -80 64
-184 16 -290 -32 -70 -50 -79 -116 -57 -75 25 -86 51 -42 101 l24 28 1 -27 c0
-37 18 -45 30 -13 17 44 24 135 11 135 -8 0 -9 13 -5 40 6 38 4 43 -35 80 -25
24 -41 48 -41 63 0 30 -47 75 -88 83 -17 4 -29 10 -26 15 6 10 87 12 134 3z
m-91 -70 c20 -17 31 -35 31 -52 0 -19 11 -36 35 -55 32 -25 34 -31 32 -78 -2
-43 -5 -49 -20 -45 -11 3 -17 0 -14 -7 2 -7 16 -12 30 -12 36 1 34 -9 -8 -35
-62 -38 -91 -100 -66 -139 16 -25 1 -39 -47 -46 -77 -11 -178 -62 -160 -80 2
-3 36 6 74 19 l70 23 10 -33 c9 -27 8 -34 -2 -34 -16 0 -27 -34 -19 -59 3 -11
1 -28 -6 -39 -10 -16 -8 -25 10 -51 l22 -31 -26 10 c-14 5 -51 26 -81 45 -31
20 -58 35 -60 33 -1 -2 2 -15 9 -28 18 -36 92 -88 150 -105 l52 -15 107 -198
c74 -137 110 -215 118 -255 6 -32 24 -77 39 -100 42 -63 65 -130 57 -169 -4
-18 -6 -89 -6 -158 1 -134 -12 -246 -35 -290 -11 -21 -28 -31 -73 -44 -94 -26
-138 -22 -177 17 -47 47 -66 118 -72 267 -5 122 -4 127 28 214 44 123 68 147
150 155 58 6 62 8 42 19 -12 7 -41 15 -65 18 -74 10 -113 -36 -158 -186 -35
-116 -41 -129 -61 -135 -28 -9 -96 31 -130 78 -46 63 -136 249 -158 325 -24
86 -49 471 -31 482 9 5 7 16 -5 40 -11 22 -14 41 -9 59 4 14 7 40 5 57 -1 17
5 49 13 69 21 50 13 55 -23 16 -46 -49 -54 -122 -32 -301 12 -104 12 -104 -11
-122 -95 -73 -170 -21 -287 199 l-65 120 -98 6 c-98 6 -99 7 -148 48 -50 42
-65 81 -36 92 7 3 37 -5 66 -19 60 -28 125 -31 158 -8 30 21 28 29 -14 54 -28
16 -34 24 -25 33 18 18 148 -31 175 -67 11 -15 52 -62 90 -102 l70 -74 23
-118 c25 -119 51 -181 40 -90 -4 25 -9 82 -13 126 -6 73 -5 83 15 108 11 14
21 32 21 38 0 7 13 33 29 58 21 32 40 49 65 58 33 11 42 9 103 -19 36 -17 68
-30 70 -28 5 6 -29 33 -70 55 l-38 20 29 20 c15 12 33 37 39 56 10 32 8 40
-23 88 -54 86 -41 153 39 195 18 9 50 36 72 61 65 74 131 91 184 46z m646
-669 c283 -285 365 -471 352 -790 -3 -71 -11 -158 -17 -192 l-12 -63 -263 0
c-189 0 -266 3 -271 12 -4 6 -7 59 -6 117 0 118 -11 164 -63 251 -18 30 -36
74 -40 97 -6 39 -5 43 24 57 42 22 106 112 120 168 18 78 13 134 -30 297 -40
154 -67 218 -108 255 -20 18 -20 20 -4 47 l17 28 90 -81 c50 -45 145 -136 211
-203z m-2042 206 l56 -58 -6 -56 -6 -56 94 -101 c127 -137 158 -183 165 -246
6 -46 4 -53 -17 -67 -13 -9 -45 -24 -73 -33 -44 -15 -61 -15 -146 -4 l-97 12
-7 66 c-13 127 -30 149 -42 56 -4 -36 -14 -64 -26 -76 -20 -20 -33 -20 -118
-1 -39 9 -13 -14 67 -57 l68 -37 0 -139 c1 -76 6 -164 13 -194 6 -30 14 -84
17 -120 l6 -66 67 -17 c91 -23 158 -56 212 -104 25 -22 72 -56 105 -76 33 -20
76 -51 95 -67 l35 -31 -1 -89 -1 -90 22 30 c24 32 25 59 4 155 -9 47 4 69 37
61 12 -3 24 -1 26 4 5 17 98 -5 121 -29 27 -26 34 -127 17 -227 -6 -38 -14
-93 -17 -122 -4 -41 -11 -57 -29 -69 -31 -20 -59 -12 -115 30 -24 19 -102 62
-174 96 -139 66 -172 91 -212 159 -23 38 -29 43 -52 37 -14 -3 -68 -9 -119
-12 -74 -4 -102 -2 -139 12 l-46 18 6 58 c6 65 43 156 88 212 16 20 25 37 20
37 -23 0 -95 -77 -117 -125 -13 -27 -31 -83 -40 -122 -15 -70 -17 -73 -49 -79
-18 -3 -40 -4 -49 -2 -10 2 -36 47 -66 116 -77 179 -165 306 -254 368 l-29 21
28 61 c26 58 27 66 24 198 l-4 136 53 14 c50 13 102 40 102 53 0 3 -29 4 -65
3 -69 -4 -95 6 -95 37 0 35 -21 91 -32 85 -8 -5 -9 -63 -4 -194 8 -199 -3
-254 -23 -126 -13 77 -28 108 -64 127 -19 11 -18 8 6 -20 48 -57 26 -146 -42
-172 -20 -8 -39 -15 -42 -17 -4 -1 -21 9 -38 23 -25 21 -30 32 -25 53 l5 27
-21 -27 c-35 -44 -77 -31 -46 14 9 12 16 32 16 44 0 26 16 34 53 27 16 -3 37
1 52 11 29 19 35 42 8 28 -10 -5 -48 -12 -84 -16 -52 -5 -69 -3 -78 8 -20 24
50 48 125 44 l61 -4 21 61 c46 127 68 145 210 165 71 11 91 10 148 -4 37 -9
68 -15 71 -12 2 2 -22 14 -54 26 -44 17 -72 21 -115 17 -56 -5 -57 -5 -72 28
-9 18 -16 42 -16 54 0 30 38 127 56 142 14 12 16 9 14 -21 -5 -67 0 -80 47
-125 64 -62 72 -56 17 12 -40 49 -45 61 -40 91 5 35 52 93 91 114 58 32 175 8
225 -47 22 -23 25 -35 23 -91 0 -35 1 -64 3 -64 13 0 34 79 29 108 -13 68 29
24 58 -62 34 -100 13 -136 -80 -136 -56 0 -153 -26 -153 -41 0 -4 24 -1 53 7
63 17 145 18 221 3 50 -11 60 -17 90 -58 41 -55 155 -166 163 -158 3 3 -28 46
-69 94 -41 48 -93 123 -117 165 -24 42 -56 90 -71 107 -36 39 -67 128 -51 144
9 9 18 4 36 -18 19 -24 26 -28 36 -17 10 9 10 15 1 24 -15 15 -16 50 -2 64 7
7 2 21 -15 44 -31 42 -31 50 -2 50 16 0 43 -20 80 -59z m2852 -124 c269 -194
381 -301 440 -421 25 -51 27 -65 27 -183 0 -70 -5 -217 -12 -325 l-14 -198
-237 0 -237 0 38 118 c20 64 63 179 94 254 117 285 115 356 -17 519 -69 85
-297 389 -297 396 0 4 12 -5 28 -19 15 -14 99 -77 187 -141z m-3219 128 c18
-15 18 -15 0 -8 -13 4 -17 3 -12 -5 4 -7 1 -12 -8 -12 -8 0 -17 6 -19 13 -4 9
-8 8 -16 -3 -7 -9 -11 -11 -11 -3 0 11 26 32 41 33 3 0 14 -7 25 -15z m1879
-65 c42 -66 65 -90 51 -54 -4 10 -1 14 6 12 7 -3 14 -21 16 -41 4 -46 -17 -68
-92 -96 -50 -18 -126 -29 -126 -17 0 2 -3 12 -7 21 -5 14 -2 16 15 10 26 -8
27 -5 5 40 -19 40 -12 56 15 32 18 -16 42 -23 42 -12 0 3 -11 28 -25 55 -29
58 -30 60 -10 60 8 0 26 -18 40 -40 24 -38 45 -52 45 -30 0 6 -9 36 -20 67
-23 67 -23 63 -10 63 6 0 30 -31 55 -70z m-1958 44 c-3 -3 -12 -4 -19 -1 -8 3
-5 6 6 6 11 1 17 -2 13 -5z m2018 -10 c61 -11 106 -37 125 -73 28 -56 90 -303
90 -359 0 -62 -11 -93 -51 -143 -34 -43 -58 -48 -112 -25 -26 11 -43 35 -97
137 -36 68 -75 138 -87 157 -13 18 -23 35 -23 37 0 3 15 5 33 5 17 0 55 6 83
14 l50 13 58 -67 c125 -147 140 -142 34 11 -72 103 -72 105 -69 161 3 56 2 58
-32 78 -20 12 -43 33 -52 47 -17 25 -17 26 1 19 11 -4 33 -10 49 -12z m-2030
-12 c-44 -36 -105 -82 -105 -78 0 27 67 86 99 86 9 0 11 -3 6 -8z m201 -13
c44 -21 76 -49 56 -49 -6 0 -14 5 -17 10 -4 6 -27 21 -53 35 -57 29 -45 33 14
4z m3212 -491 c22 -22 13 -64 -59 -275 -151 -441 -247 -690 -256 -666 -13 36
190 848 228 910 27 43 62 56 87 31z m-1955 -340 c37 -73 85 -157 107 -186 22
-29 40 -55 40 -57 0 -33 -135 59 -247 168 -29 28 -53 45 -53 38 0 -21 62 -99
134 -171 65 -63 66 -66 66 -117 0 -28 5 -109 11 -178 10 -117 9 -128 -8 -147
-16 -18 -25 -19 -98 -12 -44 4 -100 8 -125 9 -44 1 -45 2 -51 41 -3 21 -9 51
-13 65 -6 21 -3 27 19 37 39 18 39 35 0 97 -55 85 -123 232 -141 304 -24 96
-10 135 59 166 29 14 93 35 142 49 50 13 90 25 91 25 0 1 31 -59 67 -131z
m-1724 15 c1 -36 -3 -45 -30 -64 -40 -28 -78 -28 -118 0 -29 21 -67 78 -58 87
2 2 17 -2 33 -11 37 -19 58 -19 74 0 7 8 21 15 31 15 10 0 21 10 25 23 3 12
12 28 18 36 9 11 12 9 17 -15 4 -16 7 -48 8 -71z m72 -250 c78 -82 137 -185
198 -340 16 -42 17 -52 6 -56 -9 -4 -31 25 -65 84 -115 199 -241 320 -332 319
-19 -1 -15 -5 17 -22 80 -41 162 -135 318 -366 45 -66 77 -124 77 -138 0 -38
-42 -74 -87 -74 -24 0 -65 -14 -111 -37 -72 -36 -74 -37 -105 -21 -18 9 -41
18 -52 20 -23 4 -48 49 -39 72 3 9 16 16 28 16 20 1 20 2 4 14 -10 7 -18 20
-18 29 0 14 8 16 43 11 39 -5 43 -4 59 24 17 28 39 42 113 73 28 12 29 13 7
17 -31 5 -87 -15 -123 -45 l-30 -25 -62 59 c-132 127 -226 229 -236 256 -33
87 111 186 270 187 l66 0 54 -57z m2463 -256 c39 -74 44 -111 21 -144 -30 -43
-127 -48 -110 -5 19 49 35 132 35 181 0 64 5 61 54 -32z m426 -81 c0 -7 -14
-41 -31 -74 -34 -69 -63 -83 -75 -35 -10 36 29 109 65 121 29 10 41 7 41 -12z
m121 -47 c27 -12 49 -25 49 -29 0 -12 -53 -61 -83 -77 -16 -8 -40 -13 -55 -11
-25 3 -27 6 -24 45 6 96 26 109 113 72z m875 -123 c-58 -35 -60 -39 -66 -139
-3 -52 -8 -98 -12 -102 -4 -4 -19 -3 -35 2 -28 10 -28 10 -28 97 0 81 2 89 25
107 14 10 44 24 68 30 23 6 45 16 48 21 3 5 9 6 13 2 3 -3 -2 -11 -13 -18z
m-5868 -75 c11 -6 6 -24 -23 -82 -21 -41 -44 -82 -53 -91 -16 -18 -57 -24 -66
-10 -5 9 55 155 74 177 14 16 48 19 68 6z m1092 -911 c280 -67 473 -211 585
-435 74 -149 89 -219 89 -430 0 -162 -3 -190 -26 -275 -94 -350 -329 -584
-686 -682 -66 -19 -105 -22 -272 -22 -226 -1 -309 15 -457 84 -242 113 -397
299 -479 575 -36 122 -45 337 -19 465 76 377 349 652 720 725 113 23 122 23
290 20 123 -2 182 -8 255 -25z m1144 -7 c13 -21 170 -336 348 -700 177 -365
326 -663 329 -663 4 0 154 305 333 678 180 372 334 687 342 700 19 29 52 29
64 -2 5 -13 61 -374 125 -802 64 -429 122 -804 130 -834 31 -118 78 -145 250
-145 94 0 127 4 151 17 35 19 87 74 108 116 8 15 157 380 331 812 174 432 326
802 336 823 13 24 26 37 39 37 35 0 25 22 312 -685 250 -617 355 -870 385
-928 68 -135 127 -183 237 -194 64 -6 87 -23 50 -37 -21 -8 -494 -8 -561 0
-56 7 -71 27 -29 38 13 3 27 13 30 22 7 19 -189 534 -207 546 -14 9 -528 11
-551 2 -9 -3 -50 -94 -97 -212 -120 -306 -119 -348 13 -361 47 -4 63 -10 63
-21 0 -13 -70 -15 -570 -15 -313 0 -582 3 -597 8 -33 9 -36 27 -8 45 14 9 20
23 20 49 0 35 -134 1031 -146 1082 -3 14 -9 20 -14 15 -5 -5 -137 -272 -295
-594 -157 -322 -292 -591 -300 -599 -13 -13 -17 -12 -34 3 -24 22 -264 487
-452 878 -79 163 -147 294 -150 290 -5 -6 -115 -826 -134 -1003 -10 -91 23
-123 139 -135 54 -6 66 -10 64 -23 -3 -14 -35 -16 -286 -17 -225 -1 -284 2
-293 12 -13 16 -6 20 63 28 77 9 107 39 127 127 6 24 64 402 131 839 66 437
125 805 130 818 15 34 46 27 74 -15z m-3242 -21 c155 -42 239 -106 299 -228
33 -66 34 -73 34 -184 0 -182 -40 -264 -208 -437 l-99 -101 143 -179 c404
-504 496 -589 669 -616 54 -9 70 -15 68 -27 -3 -13 -30 -15 -168 -18 -268 -4
-349 18 -463 127 -61 58 -196 231 -352 451 -132 187 -106 170 -257 170 l-128
0 1 -202 c0 -238 11 -402 30 -441 18 -39 53 -55 143 -63 63 -6 76 -10 74 -23
-3 -14 -41 -16 -360 -17 -196 -1 -362 2 -368 6 -24 15 0 27 62 34 77 8 103 30
119 101 16 69 25 1408 10 1501 -7 44 -17 75 -32 90 -23 24 -94 44 -159 44 -37
0 -52 15 -34 32 3 3 206 5 452 3 417 -2 452 -3 524 -23z m1969 -3397 c-1 -347
2 -456 12 -475 10 -21 23 -27 75 -34 36 -6 61 -14 59 -20 -5 -14 -461 -15
-464 -1 0 6 28 15 63 20 35 6 70 17 76 23 19 19 26 191 20 495 -4 220 -8 267
-19 267 -8 0 -48 -16 -90 -35 -78 -36 -90 -37 -80 -11 8 20 318 227 336 224
11 -3 13 -82 12 -453z m780 438 c40 -13 69 -32 111 -74 48 -48 60 -67 79 -129
40 -133 14 -308 -68 -450 -51 -89 -217 -253 -311 -307 -112 -66 -155 -55 -59
15 205 152 325 425 289 658 -25 160 -90 244 -190 244 -81 0 -141 -69 -149
-173 -9 -103 26 -187 96 -234 40 -27 120 -31 163 -9 38 20 45 2 13 -28 -54
-50 -200 -60 -281 -18 -109 56 -158 184 -120 314 17 61 78 138 130 165 86 45
205 55 297 26z m796 -12 c62 -27 125 -92 144 -147 19 -55 15 -158 -9 -226 -42
-118 -132 -233 -286 -365 -165 -141 -168 -126 29 -119 207 7 245 21 284 99 28
57 42 47 30 -21 -22 -118 -31 -153 -45 -167 -13 -13 -62 -15 -315 -15 -214 0
-299 3 -299 11 0 6 74 84 164 173 172 168 219 230 263 344 21 54 26 84 26 157
1 161 -62 245 -184 245 -83 0 -146 -53 -171 -143 -7 -26 -17 -46 -23 -44 -6 2
-11 44 -13 99 l-3 95 38 16 c64 29 114 36 218 33 79 -2 111 -7 152 -25z m711
9 c299 0 295 1 253 -58 -66 -95 -238 -508 -286 -692 -10 -36 -20 -92 -24 -125
l-6 -59 -55 -28 c-30 -15 -70 -28 -87 -28 -28 0 -33 4 -33 23 0 73 180 484
330 755 l51 92 -193 -1 c-234 0 -254 -5 -287 -72 -13 -27 -27 -45 -31 -40 -7
8 6 205 16 232 3 10 15 12 42 7 20 -3 160 -6 310 -6z"/>
<path d="M7851 9476 c2 -2 18 -6 34 -10 22 -5 26 -4 15 4 -14 9 -59 15 -49 6z"/>
<path d="M7709 9411 l-24 -20 23 6 c12 3 29 0 37 -7 21 -17 29 -7 15 19 -13
26 -21 26 -51 2z"/>
<path d="M4520 6374 c-210 -45 -355 -197 -422 -439 -19 -70 -22 -105 -23 -290
0 -190 2 -219 24 -299 48 -184 112 -299 230 -416 134 -133 275 -191 467 -192
269 -1 464 164 534 452 30 126 42 301 30 434 -15 151 -42 252 -101 375 -44 89
-63 116 -137 191 -70 70 -103 95 -172 129 -139 68 -285 87 -430 55z"/>
<path d="M8873 5707 c-62 -166 -113 -308 -113 -315 0 -9 54 -12 230 -12 213 0
230 1 230 18 -1 26 -215 605 -226 609 -5 1 -60 -133 -121 -300z"/>
<path d="M2490 6352 l-25 -8 0 -399 0 -400 38 -12 c61 -20 197 -27 255 -13
143 34 234 216 219 439 -12 183 -87 305 -226 369 -42 20 -74 26 -145 28 -50 2
-102 0 -116 -4z"/>
<path d="M6957 433 c-4 -3 -7 -17 -7 -30 0 -21 4 -23 55 -23 l55 0 0 -145 0
-145 35 0 35 0 0 145 0 145 50 0 c49 0 50 1 50 30 l0 30 -133 0 c-74 0 -137
-3 -140 -7z"/>
<path d="M7280 266 l0 -176 30 0 30 0 0 128 c0 73 4 121 9 112 4 -8 21 -66 36
-128 l28 -113 35 3 36 3 32 125 32 125 1 -127 1 -128 35 0 35 0 -2 173 -3 172
-52 3 c-42 2 -52 0 -57 -15 -3 -10 -17 -60 -30 -112 -14 -51 -27 -95 -29 -97
-2 -3 -17 46 -34 108 l-29 113 -52 3 -52 3 0 -175z"/>
</g>
</svg>
